Patient4_TMGait_0pt4_03_left_12_GRF.mot
version=1
nRows=58
nColumns=19
inDegrees=no
endheader
time	F1x	F1y	F1z	M1x	M1y	M1z	F2x	F2y	F2z	M2x	M2y	M2z	EC1x	EC1y	EC1z	EC2x	EC2y	EC2z
15.42	23.0248	-7.7918	-2.149	1.6849	6.7813	-3.6299	-50.8315	734.1661	-76.185	274.6195	100.8188	803.0623	-0.0592	0.0182	-0.0073	-0.0462	0.0165	0.9585
15.4334	15.4129	-4.5631	-1.3889	0.91482	4.4777	-1.605	-46.6098	729.3613	-74.6315	272.1184	97.5179	796.2967	-0.0592	0.0182	-0.0073	-0.0462	0.0165	0.9585
15.4467	8.9946	-1.825	-0.74838	0.26618	2.5239	0.072988	-42.656	724.8073	-72.952	269.7868	94.11	789.3386	-0.0592	0.0182	-0.0073	-0.0462	0.0165	0.9585
15.4601	4.1232	0.28354	-0.26068	-0.23223	1.0275	1.3464	-39.2106	721.5137	-71.279	268.0702	90.8336	783.2835	-0.0592	0.0182	-0.0073	-0.0462	0.0165	0.9585
15.4734	0.76002	1.7724	0.076858	-0.58475	-0.017962	2.2435	-36.3387	720.371	-69.7308	267.3455	87.8552	779.1018	-0.0592	0.0182	-0.0073	-0.0462	0.0165	0.9585
15.4868	-1.3254	2.7167	0.28983	-0.80974	-0.67622	2.803	-33.9854	721.9477	-68.3713	267.8494	85.2411	777.4067	-0.0592	0.0182	-0.0073	-0.0462	0.0165	0.9585
15.5001	-2.4517	3.2079	0.41307	-0.9281	-1.0436	3.0802	-32.0143	726.413	-67.2253	269.6536	82.9843	778.3737	-0.0592	0.0182	-0.0073	-0.0462	0.0165	0.9585
15.5135	-2.9161	3.3194	0.47624	-0.95317	-1.2137	3.0918	-30.2415	733.5151	-66.261	272.6596	80.9987	781.7281	-0.0592	0.0182	-0.0073	-0.0462	0.0165	0.9585
15.5269	-2.9914	3.1058	0.50807	-0.88935	-1.2771	2.8483	-28.4701	742.57	-65.4237	276.5979	79.1604	786.7425	-0.0592	0.0182	-0.0073	-0.0462	0.0165	0.9585
15.5402	-2.8788	2.5693	0.52125	-0.72769	-1.2904	2.2984	-26.4809	752.5272	-64.6327	281.0552	77.308	792.3093	-0.0592	0.0182	-0.0073	-0.0462	0.0165	0.9585
15.5536	-2.7163	1.6728	0.5298	-0.45105	-1.2924	1.3624	-24.0695	762.1287	-63.8136	285.5278	75.2827	797.1322	-0.0592	0.0182	-0.0073	-0.0462	0.0165	0.9585
15.5669	-2.5813	0.37343	0.52898	-0.042771	-1.2869	-0.028896	-21.0801	770.0552	-62.9054	289.4833	72.9475	799.8802	-0.0592	0.0182	-0.0073	-0.0462	0.0165	0.9585
15.5803	-2.476	-1.3634	0.51895	0.50923	-1.2653	-1.9323	-17.4506	775.1133	-61.8968	292.4286	70.2505	799.3835	-0.0592	0.0182	-0.0073	-0.0462	0.0165	0.9585
15.5936	-2.3545	-3.4954	0.48204	1.1929	-1.1932	-4.2943	-13.2162	776.4238	-60.8237	293.9821	67.2284	794.8421	-0.0592	0.0182	-0.0073	-0.0462	0.0165	0.9585
15.607	-2.1068	-5.857	0.40651	1.9555	-1.0254	-6.9246	-8.5174	773.6078	-59.7768	293.9513	64.016	786.0044	-0.0592	0.0182	-0.0073	-0.0462	0.0165	0.9585
15.6204	-1.5791	-8.0667	0.26701	2.6737	-0.69091	-9.3862	-3.5587	766.9221	-58.8734	292.3874	60.8035	773.2871	-0.0592	0.0182	-0.0073	-0.0462	0.0165	0.9585
15.6337	-0.58147	-9.4578	0.039559	3.129	-0.10505	-10.9188	1.4573	757.201	-58.2487	289.5706	57.811	757.6851	-0.0592	0.0182	-0.0073	-0.0462	0.0165	0.9585
15.6471	1.0896	-8.9896	-0.29657	2.9772	0.82013	-10.3392	6.3253	745.6528	-58.0169	285.9336	55.2443	740.5608	-0.0592	0.0182	-0.0073	-0.0462	0.0165	0.9585
15.6604	3.6045	-5.1999	-0.74391	1.7311	2.143	-5.9879	10.8863	733.552	-58.247	281.946	53.254	723.3135	-0.0592	0.0182	-0.0073	-0.0462	0.0165	0.9585
15.6738	7.0572	3.751	-1.2765	-1.2242	3.8632	4.2198	14.9931	721.9062	-58.9382	277.983	51.9184	707.0671	-0.0592	0.0182	-0.0073	-0.0462	0.0165	0.9585
15.6871	11.3573	19.9542	-1.8253	-6.5868	5.8675	22.6652	18.4893	711.0964	-60.0063	274.1872	51.2307	692.3185	-0.0592	0.0182	-0.0073	-0.0462	0.0165	0.9585
15.7005	16.1268	45.4014	-2.2583	-15.0229	7.8776	51.5985	21.1952	700.6534	-61.2588	270.3828	51.0838	678.725	-0.0592	0.0182	-0.0073	-0.0462	0.0165	0.9585
15.7139	20.5375	81.3746	-2.3639	-26.963	9.3792	92.4473	22.9163	689.2781	-62.3939	266.0813	51.2685	665.1312	-0.0592	0.0182	-0.0073	-0.0462	0.0165	0.9585
15.7272	23.1364	127.5006	-1.832	-42.2896	9.5462	144.7547	23.5067	675.0717	-63.0132	260.5703	51.4664	649.7655	-0.0592	0.0182	-0.0073	-0.0462	0.0165	0.9585
15.7406	22.0386	180.7265	-0.25536	-59.9839	7.2992	205.0367	22.912	655.9924	-62.7071	253.0915	51.3088	630.6657	-0.0592	0.0182	-0.0073	-0.0462	0.0165	0.9585
15.7539	16.3931	235.3071	2.9875	-78.0954	1.6639	266.8104	21.2644	630.539	-61.1592	243.1059	50.4447	606.2936	-0.0592	0.0182	-0.0073	-0.0462	0.0165	0.9585
15.7673	7.9828	285.4577	8.1698	-94.6778	-6.9916	323.4052	18.9297	598.4338	-58.2802	230.5467	48.6484	576.1665	-0.0592	0.0182	-0.0073	-0.0462	0.0165	0.9585
15.7806	-0.88414	329.0924	14.4235	-109.05	-16.9359	372.1611	16.4298	560.7294	-54.2921	215.8414	45.9189	540.9972	-0.0592	0.0182	-0.0073	-0.0462	0.0165	0.9585
15.794	-8.7237	366.9237	21.2873	-121.4615	-27.1164	413.7236	14.2695	519.0404	-49.6713	199.6247	42.4889	502.0294	-0.0592	0.0182	-0.0073	-0.0462	0.0165	0.9585
15.8074	-14.7261	400.6078	27.7615	-132.5149	-36.1894	449.9545	12.7525	474.9393	-44.8047	182.5071	38.5784	460.5552	-0.0592	0.0182	-0.0073	-0.0462	0.0165	0.9585
15.8207	-18.7371	431.6151	33.4689	-142.7296	-43.6541	482.622	11.9483	429.5912	-39.9175	164.9471	34.3553	417.5709	-0.0592	0.0182	-0.0073	-0.0462	0.0165	0.9585
15.8341	-20.9128	460.749	37.8177	-152.4115	-48.9492	512.6602	11.6764	383.8809	-35.0192	147.2909	29.8899	373.9189	-0.0592	0.0182	-0.0073	-0.0462	0.0165	0.9585
15.8474	-21.5737	488.4505	40.8918	-161.7018	-52.262	540.6648	11.6835	338.5542	-30.1045	129.8278	25.2732	330.358	-0.0592	0.0182	-0.0073	-0.0462	0.0165	0.9585
15.8608	-20.9977	515.2082	42.7533	-170.7473	-53.7958	567.2044	11.6595	294.3699	-25.1953	112.8429	20.637	287.6947	-0.0592	0.0182	-0.0073	-0.0462	0.0165	0.9585
15.8741	-19.489	541.6707	43.8806	-179.7252	-54.1729	593.0847	11.3095	252.1188	-20.4303	96.6273	16.2179	246.7738	-0.0592	0.0182	-0.0073	-0.0462	0.0165	0.9585
15.8875	-17.3091	568.3887	44.5797	-188.7915	-53.8466	618.9307	10.459	212.64	-15.9775	81.4875	12.2461	208.4596	-0.0592	0.0182	-0.0073	-0.0462	0.0165	0.9585
15.9009	-14.8453	595.5348	45.3955	-197.9703	-53.5329	645.0083	9.031	176.7285	-12.0229	67.711	8.9318	173.5734	-0.0592	0.0182	-0.0073	-0.0462	0.0165	0.9585
15.9142	-12.504	623.0443	46.5484	-207.2221	-53.6179	671.3025	7.1265	144.9652	-8.6597	55.515	6.3351	142.6767	-0.0592	0.0182	-0.0073	-0.0462	0.0165	0.9585
15.9276	-10.51	650.7441	48.1915	-216.4773	-54.3347	697.6539	4.943	117.6276	-5.9187	45.0033	4.4228	116.0435	-0.0592	0.0182	-0.0073	-0.0462	0.0165	0.9585
15.9409	-8.9584	678.303	50.1426	-225.6215	-55.5243	723.7278	2.735	94.5705	-3.7736	36.1241	3.0899	93.5255	-0.0592	0.0182	-0.0073	-0.0462	0.0165	0.9585
15.9543	-7.8416	705.0076	52.2619	-234.4105	-57.0239	748.782	0.68527	75.2838	-2.1735	28.6917	2.2296	74.6205	-0.0592	0.0182	-0.0073	-0.0462	0.0165	0.9585
15.9676	-7.1714	729.8828	54.3398	-242.5039	-58.6126	771.829	-1.1205	59.1212	-1.0392	22.4658	1.7364	58.7159	-0.0592	0.0182	-0.0073	-0.0462	0.0165	0.9585
15.981	-6.9272	751.8581	56.328	-249.5204	-60.2201	791.8	-2.5976	45.4627	-0.28625	17.2165	1.5003	45.2145	-0.0592	0.0182	-0.0073	-0.0462	0.0165	0.9585
15.9944	-7.0588	770.0458	58.1966	-255.1341	-61.7964	807.8235	-3.7022	33.8549	0.16332	12.7704	1.4259	33.7065	-0.0592	0.0182	-0.0073	-0.0462	0.0165	0.9585
16.0077	-7.5159	783.8594	59.9994	-259.1198	-63.3732	819.3608	-4.334	23.9895	0.38259	9.0121	1.4049	23.8928	-0.0592	0.0182	-0.0073	-0.0462	0.0165	0.9585
16.0211	-8.2244	793.118	61.7418	-261.3971	-64.9318	826.2834	-4.4178	15.7688	0.42353	5.8978	1.3576	15.7014	-0.0592	0.0182	-0.0073	-0.0462	0.0165	0.9585
16.0344	-9.1399	798.0002	63.3969	-262.0208	-66.4247	828.8374	-3.9741	9.242	0.34176	3.4372	1.2383	9.1931	-0.0592	0.0182	-0.0073	-0.0462	0.0165	0.9585
16.0478	-10.1581	798.9084	64.8904	-261.1374	-67.7523	827.4624	-3.2376	4.4617	0.20289	1.6439	1.0701	4.4226	-0.0592	0.0182	-0.0073	-0.0462	0.0165	0.9585
16.0611	-11.1461	796.3406	66.1485	-258.9447	-68.8116	822.6687	-2.4559	1.3005	0.062543	0.46401	0.89163	1.2865	-0.0592	0.0182	-0.0073	-0.0462	0.0165	0.9585
16.0745	-11.9445	790.8851	67.1224	-255.6862	-69.5222	815.0208	-1.7382	-0.54945	-0.066595	-0.22063	0.73771	-0.52907	-0.0592	0.0182	-0.0073	-0.0462	0.0165	0.9585
16.0879	-12.4031	783.2217	67.779	-251.6445	-69.8186	805.1473	-1.163	-1.4329	-0.16579	-0.54248	0.6198	-1.3732	-0.0592	0.0182	-0.0073	-0.0462	0.0165	0.9585
16.1012	-12.4029	774.0805	68.1622	-247.1156	-69.7183	793.7356	-0.74263	-1.6728	-0.23787	-0.62454	0.54372	-1.5812	-0.0592	0.0182	-0.0073	-0.0462	0.0165	0.9585
16.1146	-11.8644	764.2037	68.2976	-242.3982	-69.2299	781.4755	-0.44781	-1.5222	-0.28246	-0.5627	0.49635	-1.4122	-0.0592	0.0182	-0.0073	-0.0462	0.0165	0.9585
16.1279	-10.7779	754.3815	68.2513	-237.795	-68.4164	769.1131	-0.26892	-1.1672	-0.3046	-0.42795	0.47221	-1.0416	-0.0592	0.0182	-0.0073	-0.0462	0.0165	0.9585
16.1413	-9.1489	745.4126	68.0122	-233.6081	-67.2699	757.3954	-0.16287	-0.74822	-0.30763	-0.27109	0.45509	-0.62142	-0.0592	0.0182	-0.0073	-0.0462	0.0165	0.9585
16.1546	-7.0432	738.043	67.6003	-230.1062	-65.8229	747.0503	-0.11691	-0.331	-0.2977	-0.11743	0.43872	-0.20043	-0.0592	0.0182	-0.0073	-0.0462	0.0165	0.9585
16.168	-4.5479	732.8758	66.9712	-227.5011	-64.0572	738.6655	-0.1037	0.03109	-0.28212	0.016226	0.42247	0.17046	-0.0592	0.0182	-0.0073	-0.0462	0.0165	0.9585
16.1814	-1.7822	730.283	66.1496	-225.9126	-62.0281	732.6215	-0.121	0.30996	-0.26347	0.12157	0.4104	0.47169	-0.0592	0.0182	-0.0073	-0.0462	0.0165	0.9585
